<svg  width="17" height="17" viewBox="0 0 17 17" fill="none" xmlns="http://www.w3.org/2000/svg">
<g clip-path="url(#clip0_517_127)">
<path d="M1.41675 8.64445C1.41675 7.02349 1.41675 6.21301 1.78451 5.54113C2.15228 4.86925 2.82417 4.45226 4.16794 3.61828L5.5846 2.73905C7.00507 1.85748 7.71532 1.41669 8.50008 1.41669C9.28484 1.41669 9.99509 1.85748 11.4156 2.73905L12.8322 3.61827C14.176 4.45226 14.8479 4.86925 15.2156 5.54113C15.5834 6.21301 15.5834 7.02349 15.5834 8.64445V9.72189C15.5834 12.485 15.5834 13.8666 14.7535 14.7249C13.9237 15.5834 12.588 15.5834 9.91675 15.5834H7.08341C4.41212 15.5834 3.07648 15.5834 2.24661 14.7249C1.41675 13.8666 1.41675 12.485 1.41675 9.72189V8.64445Z" stroke="#819CC6" stroke-width="2"/>
<path d="M10.625 12.75H6.375" stroke="#819CC6" stroke-width="2" stroke-linecap="round"/>
</g>
<defs>
<clipPath id="clip0_517_127">
<rect width="17" height="17" fill="white"/>
</clipPath>
</defs>
</svg>
