<svg width="21" height="21" viewBox="0 0 21 21" fill="none" xmlns="http://www.w3.org/2000/svg">
<circle cx="10.5" cy="10.5" r="10.1" transform="matrix(-1 0 0 1 21 0)" stroke="#819CC6" stroke-width="0.8"/>
<path d="M9.00088 5.09711C8.85235 5.10444 8.78883 5.16772 8.67439 5.25661C8.35845 5.49199 7.95444 5.62746 7.55467 5.58912C7.17958 5.51253 6.81925 5.34762 6.58025 5.04297C6.41044 4.78414 6.30868 4.50238 6.26774 4.19773C6.24606 4.05791 6.24268 4.04315 6.12395 3.94894C6.09189 3.93605 6.05946 3.92302 6.0263 3.90969C5.92161 3.95852 5.8654 4.00044 5.80064 4.09631C5.72406 4.44589 5.8663 4.86916 6.04828 5.17142C6.1224 5.2787 6.20051 5.37921 6.28423 5.47945C6.30751 5.50682 6.33028 5.5344 6.35437 5.56293C6.65381 5.87093 7.16635 6.08151 7.59399 6.11052C7.70058 6.10644 7.70058 6.10644 7.81459 6.09445C7.86221 6.08971 7.90945 6.08482 7.95845 6.0798C8.41424 6.01875 8.85661 5.86895 9.15327 5.50142C9.18756 5.38241 9.1983 5.32934 9.15278 5.21303C9.08703 5.13969 9.08703 5.13969 9.00088 5.09711Z" fill="#819CC6"/>
<path d="M14.0512 7.11713C13.9026 7.12446 13.8391 7.18774 13.7247 7.27663C13.4087 7.51201 13.0047 7.64748 12.605 7.60914C12.2299 7.53255 11.8695 7.36764 11.6305 7.06299C11.4607 6.80416 11.359 6.5224 11.318 6.21775C11.2964 6.07793 11.293 6.06317 11.1742 5.96896C11.1422 5.95607 11.1097 5.94304 11.0766 5.92971C10.9719 5.97854 10.9157 6.02046 10.8509 6.11633C10.7744 6.46591 10.9166 6.88918 11.0986 7.19144C11.1727 7.29872 11.2508 7.39923 11.3345 7.49947C11.3578 7.52684 11.3806 7.55442 11.4047 7.58295C11.7041 7.89095 12.2166 8.10153 12.6443 8.13054C12.7509 8.12646 12.7509 8.12646 12.8649 8.11447C12.9125 8.10973 12.9597 8.10484 13.0087 8.09982C13.4645 8.03877 13.9069 7.88897 14.2036 7.52144C14.2379 7.40243 14.2486 7.34936 14.2031 7.23305C14.1373 7.15971 14.1373 7.15971 14.0512 7.11713Z" fill="#819CC6"/>
<path d="M9.87339 9.44102C9.7707 9.44589 9.73953 9.48251 9.66571 9.55262C9.42803 9.75981 9.13659 9.88121 8.81646 9.85952C8.51676 9.81052 8.25905 9.69509 8.07702 9.44859C7.97333 9.28451 7.9034 9.1135 7.86499 8.92413C7.84341 8.82437 7.84037 8.81536 7.75094 8.75344C7.72725 8.74578 7.70329 8.73803 7.67878 8.73011C7.60577 8.77104 7.56733 8.80442 7.52503 8.87729C7.48364 9.15714 7.62967 9.46071 7.78592 9.68669C8.05846 10.0157 8.41179 10.195 8.83732 10.244C8.91731 10.2422 8.99169 10.2347 9.0705 10.2209C9.09695 10.2164 9.12366 10.2119 9.15101 10.2074C9.49966 10.1381 9.793 9.99883 10.0132 9.71314C10.0317 9.63941 10.0317 9.63941 9.99995 9.54171C9.9406 9.46126 9.9406 9.46126 9.87339 9.44102Z" fill="#819CC6"/>
<path d="M5.06942 5.27087C5.06942 6.56146 6.13364 7.6145 7.45487 7.6145C8.77611 7.6145 9.84033 6.56146 9.84033 5.27087C9.84033 3.98028 8.77611 2.92725 7.45487 2.92725C6.13364 2.92725 5.06942 3.98028 5.06942 5.27087Z" stroke="#819CC6" stroke-width="0.5"/>
<circle cx="2.63546" cy="2.63546" r="2.38546" transform="matrix(-1 0 0 1 15.3611 4.43433)" stroke="#819CC6" stroke-width="0.5"/>
</svg>
