<svg width="15" height="19" viewBox="0 0 15 19" fill="none" xmlns="http://www.w3.org/2000/svg">
<path d="M5.45316 0C4.94493 0 4.53293 0.411608 4.53293 0.919343C4.53293 1.42708 4.94493 1.83869 5.45316 1.83869V0ZM9.54688 1.83869C10.0551 1.83869 10.4671 1.42708 10.4671 0.919343C10.4671 0.411608 10.0551 0 9.54688 0V1.83869ZM5.10741 16.0407C5.61563 16.0407 6.02757 15.6291 6.02757 15.1213C6.02757 14.6136 5.61563 14.202 5.10741 14.202V16.0407ZM2.65023 15.1213L2.64017 16.0407H2.65023V15.1213ZM1.19673 14.2633L1.99311 13.8024L1.98536 13.7895L1.19673 14.2633ZM1.35703 9.18852L0.436807 9.18141V9.18852H1.35703ZM7.49993 2.98726L7.49343 3.90668L7.50656 3.90658L7.49993 2.98726ZM13.643 9.18975H14.5632V9.18276L13.643 9.18975ZM13.8032 14.2621L13.0154 13.7868L13.0069 13.8013L13.8032 14.2621ZM12.3498 15.1201V16.0396L12.3598 16.0395L12.3498 15.1201ZM9.89263 14.2008C9.3843 14.2008 8.97241 14.6124 8.97241 15.1201C8.97241 15.6278 9.3843 16.0395 9.89263 16.0395V14.2008ZM6.02769 15.1201C6.02769 14.6123 5.61566 14.2008 5.10743 14.2008C4.5992 14.2008 4.18721 14.6123 4.18721 15.1201H6.02769ZM5.10743 15.7122H4.18706L4.18735 15.728L5.10743 15.7122ZM7.50005 18.0804L7.516 17.1612C7.50533 17.1609 7.49465 17.1609 7.48398 17.1612L7.50005 18.0804ZM9.89263 15.7134L10.8129 15.7296V15.7134H9.89263ZM10.8129 15.1213C10.8129 14.6135 10.4008 14.202 9.89263 14.202C9.38443 14.202 8.97241 14.6135 8.97241 15.1213H10.8129ZM5.10741 14.202C4.59918 14.202 4.18721 14.6136 4.18721 15.1215C4.18721 15.6292 4.59918 16.0407 5.10741 16.0407V14.202ZM9.89263 16.0408C10.4008 16.0408 10.8129 15.6291 10.8129 15.1213C10.8129 14.6135 10.4008 14.202 9.89263 14.202V16.0408ZM5.45316 1.83869H9.54688V0H5.45316V1.83869ZM5.10741 14.202H2.65023V16.0407H5.10741V14.202ZM2.66029 14.2021C2.39507 14.1992 2.13934 14.0545 1.99311 13.8024L0.400465 14.7241C0.864576 15.5245 1.71052 16.0305 2.64017 16.0407L2.66029 14.2021ZM1.98536 13.7895C1.81898 13.5131 1.79565 13.1388 1.91767 12.4766C1.98483 12.1122 2.05002 11.8652 2.13538 11.4372C2.2092 11.0672 2.27726 10.6481 2.27726 10.2182H0.436807C0.436807 10.4662 0.396759 10.7453 0.330429 11.078C0.275633 11.3527 0.16863 11.8127 0.107637 12.1438C-0.0266418 12.8725 -0.130137 13.8428 0.408108 14.7371L1.98536 13.7895ZM2.27726 10.2182V9.18852H0.436807V10.2182H2.27726ZM2.27723 9.19576C2.30042 6.23135 4.65644 3.88664 7.49343 3.90668L7.50656 2.06794C3.60997 2.04041 0.467592 5.24617 0.436807 9.18141L2.27723 9.19576ZM7.50656 3.90658C10.3439 3.88654 12.7002 6.23198 12.7228 9.19674L14.5632 9.18276C14.5331 5.24703 11.3905 2.04043 7.49343 2.06794L7.50656 3.90658ZM12.7228 9.18975V10.217H14.5632V9.18975H12.7228ZM12.7228 10.217C12.7228 10.6478 12.7907 11.0677 12.8646 11.4385C12.9501 11.8682 13.0149 12.1134 13.0823 12.479C13.2045 13.1421 13.1804 13.5137 13.0154 13.7868L14.5909 14.7373C15.1305 13.8447 15.0265 12.8741 14.8924 12.1462C14.8315 11.8164 14.7242 11.3539 14.6696 11.0798C14.6033 10.7466 14.5632 10.4664 14.5632 10.217H12.7228ZM13.0069 13.8013C12.8608 14.0534 12.605 14.198 12.3397 14.2009L12.3598 16.0395C13.2895 16.0293 14.1354 15.5233 14.5995 14.7228L13.0069 13.8013ZM12.3498 14.2008H9.89263V16.0395L12.3498 16.0396V14.2008ZM4.18721 15.1201L4.18706 15.7122H6.02769V15.1201H4.18721ZM4.18735 15.728C4.21863 17.5444 5.68724 19.0312 7.516 18.9995L7.48398 17.1612C6.71529 17.1745 6.04205 16.5414 6.02757 15.6964L4.18735 15.728ZM7.48398 18.9995C9.31216 19.0312 10.7807 17.5453 10.8129 15.7296L8.97253 15.6971C8.95756 16.5419 8.28445 17.1745 7.516 17.1612L7.48398 18.9995ZM10.8129 15.7134V15.1213H8.97241V15.7134H10.8129ZM5.10741 16.0407L9.89263 16.0408V14.202H5.10741V16.0407Z" fill="#819CC6"/>
</svg>
