<svg width="18" height="20" viewBox="0 0 18 20" fill="none" xmlns="http://www.w3.org/2000/svg">
<path d="M3.66667 15.1375C2.03 13.6544 1 11.499 1 9.1C1 4.6265 4.58172 1 9 1C13.4183 1 17 4.6265 17 9.1C17 11.499 15.97 13.6544 14.3333 15.1375M5.26878 11.5459C4.81759 10.8418 4.55556 10.0019 4.55556 9.1C4.55556 6.61472 6.5454 4.6 9 4.6C11.4546 4.6 13.4444 6.61472 13.4444 9.1C13.4444 10.0007 13.1831 10.8396 12.733 11.5432M9 19C8.01813 19 7.22222 18.1941 7.22222 17.2V15.4C7.22222 14.4059 8.01813 13.6 9 13.6C9.98187 13.6 10.7778 14.4059 10.7778 15.4V17.2C10.7778 18.1941 9.98187 19 9 19ZM9.88889 9.1C9.88889 9.59707 9.49093 10 9 10C8.50907 10 8.11111 9.59707 8.11111 9.1C8.11111 8.60293 8.50907 8.2 9 8.2C9.49093 8.2 9.88889 8.60293 9.88889 9.1Z" stroke="#819CC6" stroke-width="1.5" stroke-linecap="round" stroke-linejoin="round"/>
</svg>
