<svg width="87" height="10" viewBox="0 0 87 10" fill="none" xmlns="http://www.w3.org/2000/svg">
<path d="M3.648 9.084C3.088 9.084 2.584 8.988 2.136 8.796C1.688 8.596 1.336 8.316 1.08 7.956C0.824 7.596 0.696 7.176 0.696 6.696H2.16C2.192 7.056 2.332 7.352 2.58 7.584C2.836 7.816 3.192 7.932 3.648 7.932C4.12 7.932 4.488 7.82 4.752 7.596C5.016 7.364 5.148 7.068 5.148 6.708C5.148 6.428 5.064 6.2 4.896 6.024C4.736 5.848 4.532 5.712 4.284 5.616C4.044 5.52 3.708 5.416 3.276 5.304C2.732 5.16 2.288 5.016 1.944 4.872C1.608 4.72 1.32 4.488 1.08 4.176C0.84 3.864 0.72 3.448 0.72 2.928C0.72 2.448 0.84 2.028 1.08 1.668C1.32 1.308 1.656 1.032 2.088 0.84C2.52 0.648 3.02 0.551999 3.588 0.551999C4.396 0.551999 5.056 0.755999 5.568 1.164C6.088 1.564 6.376 2.116 6.432 2.82H4.92C4.896 2.516 4.752 2.256 4.488 2.04C4.224 1.824 3.876 1.716 3.444 1.716C3.052 1.716 2.732 1.816 2.484 2.016C2.236 2.216 2.112 2.504 2.112 2.88C2.112 3.136 2.188 3.348 2.34 3.516C2.5 3.676 2.7 3.804 2.94 3.9C3.18 3.996 3.508 4.1 3.924 4.212C4.476 4.364 4.924 4.516 5.268 4.668C5.62 4.82 5.916 5.056 6.156 5.376C6.404 5.688 6.528 6.108 6.528 6.636C6.528 7.06 6.412 7.46 6.18 7.836C5.956 8.212 5.624 8.516 5.184 8.748C4.752 8.972 4.24 9.084 3.648 9.084ZM14.2022 5.532C14.2022 5.78 14.1862 6.004 14.1542 6.204H9.10219C9.14219 6.732 9.33819 7.156 9.69019 7.476C10.0422 7.796 10.4742 7.956 10.9862 7.956C11.7222 7.956 12.2422 7.648 12.5462 7.032H14.0222C13.8222 7.64 13.4582 8.14 12.9302 8.532C12.4102 8.916 11.7622 9.108 10.9862 9.108C10.3542 9.108 9.78619 8.968 9.28219 8.688C8.78619 8.4 8.39419 8 8.10619 7.488C7.82619 6.968 7.68619 6.368 7.68619 5.688C7.68619 5.008 7.82219 4.412 8.09419 3.9C8.37419 3.38 8.76219 2.98 9.25819 2.7C9.76219 2.42 10.3382 2.28 10.9862 2.28C11.6102 2.28 12.1662 2.416 12.6542 2.688C13.1422 2.96 13.5222 3.344 13.7942 3.84C14.0662 4.328 14.2022 4.892 14.2022 5.532ZM12.7742 5.1C12.7662 4.596 12.5862 4.192 12.2342 3.888C11.8822 3.584 11.4462 3.432 10.9262 3.432C10.4542 3.432 10.0502 3.584 9.71419 3.888C9.37819 4.184 9.17819 4.588 9.11419 5.1H12.7742ZM21.6084 5.532C21.6084 5.78 21.5924 6.004 21.5604 6.204H16.5084C16.5484 6.732 16.7444 7.156 17.0964 7.476C17.4484 7.796 17.8804 7.956 18.3924 7.956C19.1284 7.956 19.6484 7.648 19.9524 7.032H21.4284C21.2284 7.64 20.8644 8.14 20.3364 8.532C19.8164 8.916 19.1684 9.108 18.3924 9.108C17.7604 9.108 17.1924 8.968 16.6884 8.688C16.1924 8.4 15.8004 8 15.5124 7.488C15.2324 6.968 15.0924 6.368 15.0924 5.688C15.0924 5.008 15.2284 4.412 15.5004 3.9C15.7804 3.38 16.1684 2.98 16.6644 2.7C17.1684 2.42 17.7444 2.28 18.3924 2.28C19.0164 2.28 19.5724 2.416 20.0604 2.688C20.5484 2.96 20.9284 3.344 21.2004 3.84C21.4724 4.328 21.6084 4.892 21.6084 5.532ZM20.1804 5.1C20.1724 4.596 19.9924 4.192 19.6404 3.888C19.2884 3.584 18.8524 3.432 18.3324 3.432C17.8604 3.432 17.4564 3.584 17.1204 3.888C16.7844 4.184 16.5844 4.588 16.5204 5.1H20.1804ZM31.0999 7.296H27.6079L27.0079 9H25.5799L28.5679 0.648H30.1519L33.1399 9H31.6999L31.0999 7.296ZM30.7159 6.18L29.3599 2.304L27.9919 6.18H30.7159ZM35.8071 0.12V9H34.4391V0.12H35.8071ZM38.9711 0.12V9H37.6031V0.12H38.9711ZM49.2724 0.659999V1.776H47.0524V9H45.6844V1.776H43.4524V0.659999H49.2724ZM50.2018 5.664C50.2018 5 50.3378 4.412 50.6098 3.9C50.8898 3.388 51.2658 2.992 51.7378 2.712C52.2178 2.424 52.7458 2.28 53.3218 2.28C53.8418 2.28 54.2938 2.384 54.6778 2.592C55.0698 2.792 55.3818 3.044 55.6138 3.348V2.388H56.9938V9H55.6138V8.016C55.3818 8.328 55.0658 8.588 54.6658 8.796C54.2658 9.004 53.8098 9.108 53.2978 9.108C52.7298 9.108 52.2098 8.964 51.7378 8.676C51.2658 8.38 50.8898 7.972 50.6098 7.452C50.3378 6.924 50.2018 6.328 50.2018 5.664ZM55.6138 5.688C55.6138 5.232 55.5178 4.836 55.3258 4.5C55.1418 4.164 54.8978 3.908 54.5938 3.732C54.2898 3.556 53.9618 3.468 53.6098 3.468C53.2578 3.468 52.9298 3.556 52.6258 3.732C52.3218 3.9 52.0738 4.152 51.8818 4.488C51.6978 4.816 51.6058 5.208 51.6058 5.664C51.6058 6.12 51.6978 6.52 51.8818 6.864C52.0738 7.208 52.3218 7.472 52.6258 7.656C52.9378 7.832 53.2658 7.92 53.6098 7.92C53.9618 7.92 54.2898 7.832 54.5938 7.656C54.8978 7.48 55.1418 7.224 55.3258 6.888C55.5178 6.544 55.6138 6.144 55.6138 5.688ZM61.1906 9.108C60.6706 9.108 60.2026 9.016 59.7866 8.832C59.3786 8.64 59.0546 8.384 58.8146 8.064C58.5746 7.736 58.4466 7.372 58.4306 6.972H59.8466C59.8706 7.252 60.0026 7.488 60.2426 7.68C60.4906 7.864 60.7986 7.956 61.1666 7.956C61.5506 7.956 61.8466 7.884 62.0546 7.74C62.2706 7.588 62.3786 7.396 62.3786 7.164C62.3786 6.916 62.2586 6.732 62.0186 6.612C61.7866 6.492 61.4146 6.36 60.9026 6.216C60.4066 6.08 60.0026 5.948 59.6906 5.82C59.3786 5.692 59.1066 5.496 58.8746 5.232C58.6506 4.968 58.5386 4.62 58.5386 4.188C58.5386 3.836 58.6426 3.516 58.8506 3.228C59.0586 2.932 59.3546 2.7 59.7386 2.532C60.1306 2.364 60.5786 2.28 61.0826 2.28C61.8346 2.28 62.4386 2.472 62.8946 2.856C63.3586 3.232 63.6066 3.748 63.6386 4.404H62.2706C62.2466 4.108 62.1266 3.872 61.9106 3.696C61.6946 3.52 61.4026 3.432 61.0346 3.432C60.6746 3.432 60.3986 3.5 60.2066 3.636C60.0146 3.772 59.9186 3.952 59.9186 4.176C59.9186 4.352 59.9826 4.5 60.1106 4.62C60.2386 4.74 60.3946 4.836 60.5786 4.908C60.7626 4.972 61.0346 5.056 61.3946 5.16C61.8746 5.288 62.2666 5.42 62.5706 5.556C62.8826 5.684 63.1506 5.876 63.3746 6.132C63.5986 6.388 63.7146 6.728 63.7226 7.152C63.7226 7.528 63.6186 7.864 63.4106 8.16C63.2026 8.456 62.9066 8.688 62.5226 8.856C62.1466 9.024 61.7026 9.108 61.1906 9.108ZM67.8168 5.7L70.8648 9H69.0168L66.5688 6.156V9H65.2008V0.12H66.5688V5.28L68.9688 2.388H70.8648L67.8168 5.7ZM74.2453 9.108C73.7253 9.108 73.2573 9.016 72.8413 8.832C72.4333 8.64 72.1093 8.384 71.8693 8.064C71.6293 7.736 71.5013 7.372 71.4853 6.972H72.9013C72.9253 7.252 73.0573 7.488 73.2973 7.68C73.5453 7.864 73.8533 7.956 74.2213 7.956C74.6053 7.956 74.9013 7.884 75.1093 7.74C75.3253 7.588 75.4333 7.396 75.4333 7.164C75.4333 6.916 75.3133 6.732 75.0733 6.612C74.8413 6.492 74.4693 6.36 73.9573 6.216C73.4613 6.08 73.0573 5.948 72.7453 5.82C72.4333 5.692 72.1613 5.496 71.9293 5.232C71.7053 4.968 71.5933 4.62 71.5933 4.188C71.5933 3.836 71.6973 3.516 71.9053 3.228C72.1133 2.932 72.4093 2.7 72.7933 2.532C73.1853 2.364 73.6333 2.28 74.1373 2.28C74.8893 2.28 75.4933 2.472 75.9493 2.856C76.4133 3.232 76.6613 3.748 76.6933 4.404H75.3253C75.3013 4.108 75.1813 3.872 74.9653 3.696C74.7493 3.52 74.4573 3.432 74.0893 3.432C73.7293 3.432 73.4533 3.5 73.2613 3.636C73.0693 3.772 72.9733 3.952 72.9733 4.176C72.9733 4.352 73.0373 4.5 73.1653 4.62C73.2933 4.74 73.4493 4.836 73.6333 4.908C73.8173 4.972 74.0893 5.056 74.4493 5.16C74.9293 5.288 75.3213 5.42 75.6253 5.556C75.9373 5.684 76.2053 5.876 76.4293 6.132C76.6533 6.388 76.7693 6.728 76.7773 7.152C76.7773 7.528 76.6733 7.864 76.4653 8.16C76.2573 8.456 75.9613 8.688 75.5773 8.856C75.2013 9.024 74.7573 9.108 74.2453 9.108ZM81.8167 1.944H83.5447L86.3047 4.668L83.5447 7.392H81.8167L84.5887 4.668L81.8167 1.944Z" fill="#819CC6"/>
</svg>
