<svg width="18" height="18" viewBox="0 0 18 18" fill="none" xmlns="http://www.w3.org/2000/svg">
<path d="M9 11.25C10.2426 11.25 11.25 10.2426 11.25 9C11.25 7.75736 10.2426 6.75 9 6.75C7.75736 6.75 6.75 7.75736 6.75 9C6.75 10.2426 7.75736 11.25 9 11.25Z" stroke="#819CC6" stroke-width="1.5"/>
<path d="M10.3242 1.61418C10.0485 1.5 9.69904 1.5 9.00012 1.5C8.30119 1.5 7.95177 1.5 7.67607 1.61418C7.30855 1.76642 7.01653 2.05844 6.86429 2.42597C6.7948 2.59375 6.76759 2.78887 6.75695 3.07349C6.74131 3.49176 6.52681 3.87892 6.16432 4.0882C5.80185 4.29747 5.35931 4.28965 4.98926 4.09407C4.73746 3.96097 4.55488 3.88696 4.37482 3.86326C3.9804 3.81133 3.58151 3.91822 3.26589 4.1604C3.02918 4.34204 2.85445 4.64467 2.50499 5.24995C2.15554 5.85523 1.98081 6.15786 1.94186 6.45368C1.88994 6.8481 1.99682 7.24699 2.239 7.56262C2.34954 7.7067 2.5049 7.82775 2.74601 7.97925C3.10047 8.202 3.32854 8.58142 3.32851 9C3.32849 9.41857 3.10043 9.79792 2.74601 10.0206C2.50486 10.1722 2.34948 10.2933 2.23893 10.4374C1.99675 10.753 1.88987 11.1518 1.9418 11.5462C1.98074 11.842 2.15546 12.1447 2.50492 12.75C2.85438 13.3552 3.02911 13.6579 3.26581 13.8395C3.58143 14.0817 3.98032 14.1886 4.37475 14.1367C4.55479 14.113 4.73736 14.0389 4.98915 13.9059C5.35922 13.7103 5.80179 13.7025 6.16429 13.9117C6.5268 14.1211 6.74131 14.5082 6.75695 14.9266C6.7676 15.2111 6.7948 15.4063 6.86429 15.574C7.01653 15.9415 7.30855 16.2336 7.67607 16.3858C7.95177 16.5 8.30119 16.5 9.00012 16.5C9.69904 16.5 10.0485 16.5 10.3242 16.3858C10.6917 16.2336 10.9837 15.9415 11.1359 15.574C11.2054 15.4063 11.2326 15.2111 11.2433 14.9265C11.2589 14.5082 11.4734 14.1211 11.8359 13.9117C12.1983 13.7024 12.6409 13.7103 13.011 13.9059C13.2628 14.0389 13.4454 14.1129 13.6254 14.1366C14.0198 14.1886 14.4187 14.0817 14.7343 13.8395C14.971 13.6579 15.1458 13.3553 15.4952 12.7499C15.8447 12.1447 16.0194 11.842 16.0584 11.5462C16.1103 11.1518 16.0034 10.7529 15.7612 10.4373C15.6507 10.2932 15.4953 10.1721 15.2541 10.0206C14.8998 9.79792 14.6717 9.4185 14.6717 8.99992C14.6717 8.58135 14.8998 8.20207 15.2541 7.9794C15.4953 7.82782 15.6507 7.70677 15.7613 7.56262C16.0035 7.24705 16.1103 6.84815 16.0584 6.45373C16.0195 6.15791 15.8448 5.85527 15.4953 5.25C15.1458 4.64473 14.9711 4.34209 14.7344 4.16045C14.4188 3.91827 14.0199 3.81139 13.6254 3.86332C13.4454 3.88702 13.2629 3.96102 13.011 4.0941C12.641 4.28969 12.1984 4.29751 11.8359 4.08822C11.4734 3.87893 11.2589 3.49174 11.2433 3.07345C11.2326 2.78886 11.2054 2.59375 11.1359 2.42597C10.9837 2.05844 10.6917 1.76642 10.3242 1.61418Z" stroke="#819CC6" stroke-width="1.5"/>
</svg>
