<svg width="19" height="19" viewBox="0 0 19 19" fill="none" xmlns="http://www.w3.org/2000/svg">
<path d="M18.0996 17.1905H8.13882C7.64462 17.1905 7.23828 16.7823 7.23828 16.2857C7.23828 15.7892 7.64462 15.381 8.13882 15.381H18.0996C18.5938 15.381 19.0002 15.7892 19.0002 16.2857C19.0002 16.7933 18.5938 17.1905 18.0996 17.1905Z" fill="#819CC6"/>
<path d="M18.0996 9.95241H8.13882C7.64462 9.95241 7.23828 9.54416 7.23828 9.04765C7.23828 8.55113 7.64462 8.14288 8.13882 8.14288H18.0996C18.5938 8.14288 19.0002 8.55113 19.0002 9.04765C19.0002 9.54416 18.5938 9.95241 18.0996 9.95241Z" fill="#819CC6"/>
<path d="M18.0996 3.61903H8.13882C7.64462 3.61903 7.23828 3.21079 7.23828 2.71427C7.23828 2.21776 7.64462 1.80951 8.13882 1.80951H18.0996C18.5938 1.80951 19.0002 2.21776 19.0002 2.71427C19.0002 3.21079 18.5938 3.61903 18.0996 3.61903Z" fill="#819CC6"/>
<path d="M1.78205 4.52381C1.55543 4.52381 1.33912 4.43043 1.1846 4.27479L0.247221 3.33061C-0.0824071 2.99859 -0.0824071 2.45904 0.247221 2.12702C0.57685 1.79499 1.1125 1.79499 1.44213 2.12702L1.78205 2.46943L3.98645 0.24901C4.31607 -0.0830032 4.85172 -0.0830032 5.18135 0.24901C5.51098 0.581043 5.51098 1.12058 5.18135 1.4526L2.37951 4.27479C2.21469 4.43043 2.00867 4.52381 1.78205 4.52381Z" fill="#819CC6"/>
<path d="M1.78205 18.0952C1.56574 18.0952 1.34942 18.0122 1.1846 17.8462L0.247221 16.902C-0.0824071 16.57 -0.0824071 16.0305 0.247221 15.6984C0.57685 15.3664 1.1125 15.3664 1.44213 15.6984L1.78205 16.0408L3.98645 13.8203C4.31607 13.4884 4.85172 13.4884 5.18135 13.8203C5.51098 14.1525 5.51098 14.692 5.18135 15.024L2.37951 17.8462C2.21469 18.0122 1.99837 18.0952 1.78205 18.0952Z" fill="#819CC6"/>
<path d="M1.78205 11.7619C1.56574 11.7619 1.34942 11.6789 1.1846 11.5129L0.247221 10.5687C-0.0824071 10.2367 -0.0824071 9.69715 0.247221 9.36513C0.57685 9.03311 1.1125 9.03311 1.44213 9.36513L1.78205 9.70753L3.98645 7.48704C4.31607 7.15512 4.85172 7.15512 5.18135 7.48704C5.51098 7.81916 5.51098 8.35869 5.18135 8.69071L2.37951 11.5129C2.21469 11.6789 1.99837 11.7619 1.78205 11.7619Z" fill="#819CC6"/>
</svg>
