<svg width="67" height="68" viewBox="0 0 67 68" fill="none" xmlns="http://www.w3.org/2000/svg">
<g clip-path="url(#clip0_60_2291)">
<path d="M33.1203 0.76709L33.4736 13.6016C33.7747 24.5439 42.5443 33.3433 53.4496 33.6454L66.2407 33.9998L53.4496 34.3542C42.5443 34.6563 33.7747 43.4557 33.4736 54.398L33.1203 67.2325L32.7672 54.398C32.466 43.4557 23.6964 34.6563 12.7911 34.3542L0 33.9998L12.7911 33.6454C23.6964 33.3433 32.466 24.5439 32.7672 13.6016L33.1203 0.76709Z" fill="#C2D9FF"/>
<path d="M33.1203 0.76709L33.4736 13.6016C33.7747 24.5439 42.5443 33.3433 53.4496 33.6454L66.2407 33.9998L53.4496 34.3542C42.5443 34.6563 33.7747 43.4557 33.4736 54.398L33.1203 67.2325L32.7672 54.398C32.466 43.4557 23.6964 34.6563 12.7911 34.3542L0 33.9998L12.7911 33.6454C23.6964 33.3433 32.466 24.5439 32.7672 13.6016L33.1203 0.76709Z" fill="black" fill-opacity="0.2"/>
</g>
<defs>
<clipPath id="clip0_60_2291">
<rect width="67" height="68" fill="white"/>
</clipPath>
</defs>
</svg>
