<svg width="740" height="314" viewBox="0 0 740 314" fill="none" xmlns="http://www.w3.org/2000/svg">
<g filter="url(#filter0_f_63_2337)">
<circle cx="140.613" cy="157.917" r="130.613" fill="#EEF5FE"/>
</g>
<circle cx="139.383" cy="158.797" r="110.383" fill="#C2D9FF"/>
<g filter="url(#filter1_f_63_2337)">
<path d="M235.162 105.584C236.443 106.637 237.054 108.037 237.766 109.488C237.903 109.765 238.035 110.039 238.175 110.325C238.459 110.903 238.744 111.482 239.024 112.06C239.413 112.851 239.814 113.63 240.215 114.413C243.646 121.152 245.803 128.426 247.574 135.743C247.734 136.391 247.734 136.391 247.897 137.055C249.587 144.402 250.156 151.808 250.109 159.329C250.101 160.575 250.109 161.817 250.117 163.063C250.124 170.237 249.4 177.288 247.792 184.293C247.695 184.721 247.597 185.145 247.496 185.585C245.203 195.166 241.792 204.701 236.719 213.198C236.54 213.503 236.361 213.804 236.178 214.116C235.586 215.1 234.986 216.079 234.383 217.055C234.134 217.456 233.888 217.857 233.631 218.274C227.196 228.53 218.77 238.285 208.962 245.49C208.012 246.196 207.086 246.932 206.155 247.669C203.336 249.895 200.474 251.912 197.332 253.679C196.655 254.06 195.985 254.454 195.315 254.843C180.131 263.649 162.45 268.729 144.832 269.126C144.525 269.134 144.217 269.142 143.902 269.15C115.23 269.801 88.5088 260.043 66.9621 241.355C66.7013 241.139 66.4365 240.919 66.1679 240.696C61.8694 237.112 57.9253 233.031 54.5029 228.627C54.1136 228.141 53.7203 227.651 53.331 227.165C41.7011 212.554 30.4216 190.989 31.1419 171.927C33.077 173.396 34.4475 175.001 35.8881 176.941C40.1631 182.592 44.7341 188.215 50.2201 192.755C50.7924 193.257 50.7924 193.257 51.3764 193.77C66.3937 206.919 84.4829 215.454 104.098 219.296C104.48 219.373 104.862 219.447 105.259 219.524C111.617 220.696 117.959 221.059 124.415 221.032C124.773 221.032 125.127 221.032 125.493 221.032C143.322 220.97 160.601 216.885 176.37 208.57C176.786 208.354 176.786 208.354 177.207 208.134C189.713 201.627 201.681 191.957 210.243 180.798C210.687 180.239 211.131 179.68 211.571 179.124C226.627 159.939 233.756 136.977 234.18 112.863C234.196 112.022 234.216 111.177 234.235 110.336C234.247 109.839 234.254 109.345 234.266 108.832C234.375 107.586 234.62 106.707 235.162 105.584Z" fill="white" fill-opacity="0.24"/>
</g>
<path d="M155.144 101.997C156.705 102.074 157.373 102.739 158.576 103.674C161.897 106.148 166.145 107.573 170.347 107.17C174.29 106.364 178.079 104.631 180.591 101.428C182.376 98.707 183.446 95.7449 183.876 92.5423C184.104 91.0723 184.14 90.9172 185.388 89.9268C185.725 89.7913 186.066 89.6543 186.415 89.5142C187.515 90.0275 188.106 90.4682 188.787 91.4761C189.592 95.1511 188.097 99.6008 186.183 102.778C185.404 103.906 184.583 104.963 183.703 106.017C183.458 106.304 183.219 106.594 182.966 106.894C179.818 110.132 174.43 112.346 169.934 112.651C168.813 112.608 168.813 112.608 167.615 112.482C167.114 112.432 166.618 112.381 166.102 112.328C161.311 111.686 156.66 110.111 153.542 106.248C153.181 104.996 153.068 104.439 153.547 103.216C154.238 102.445 154.238 102.445 155.144 101.997Z" fill="#403D44"/>
<path d="M102.049 123.235C103.61 123.312 104.278 123.977 105.481 124.912C108.803 127.386 113.05 128.81 117.253 128.407C121.196 127.602 124.984 125.868 127.496 122.666C129.281 119.945 130.351 116.983 130.782 113.78C131.01 112.31 131.045 112.155 132.293 111.165C132.63 111.029 132.971 110.892 133.32 110.752C134.42 111.265 135.011 111.706 135.692 112.714C136.497 116.389 135.002 120.839 133.089 124.016C132.31 125.144 131.488 126.201 130.608 127.254C130.364 127.542 130.124 127.832 129.871 128.132C126.723 131.37 121.335 133.584 116.839 133.889C115.719 133.846 115.719 133.846 114.52 133.72C114.02 133.67 113.523 133.618 113.008 133.566C108.216 132.924 103.566 131.349 100.447 127.485C100.086 126.234 99.9735 125.676 100.452 124.454C101.143 123.683 101.143 123.683 102.049 123.235Z" fill="#403D44"/>
<path d="M145.971 147.666C147.051 147.717 147.379 148.102 148.155 148.839C150.653 151.017 153.717 152.293 157.083 152.065C160.233 151.55 162.943 150.336 164.856 147.745C165.946 146.02 166.681 144.222 167.085 142.232C167.312 141.183 167.344 141.088 168.284 140.437C168.533 140.357 168.785 140.275 169.043 140.192C169.81 140.622 170.214 140.973 170.659 141.739C171.094 144.681 169.559 147.873 167.916 150.248C165.051 153.707 161.337 155.592 156.863 156.107C156.022 156.088 155.24 156.009 154.412 155.864C154.134 155.816 153.853 155.77 153.566 155.722C149.9 154.993 146.817 153.53 144.501 150.526C144.307 149.751 144.307 149.751 144.641 148.724C145.265 147.878 145.265 147.878 145.971 147.666Z" fill="#403D44"/>
<path d="M198.603 103.825C198.603 118.6 186.43 130.591 171.397 130.591C156.364 130.591 144.191 118.6 144.191 103.825C144.191 89.0501 156.364 77.0591 171.397 77.0591C186.43 77.0591 198.603 89.0501 198.603 103.825Z" stroke="black"/>
<circle cx="118.624" cy="122.735" r="27.2058" stroke="black"/>
<rect x="143.004" y="114.597" width="4.6575" height="2.21033" transform="rotate(-21.3404 143.004 114.597)" fill="black"/>
<path d="M234.041 101.479C223.401 91.2103 211.12 82.487 197.619 75.6092C137.207 44.6368 67.9288 56.0564 67.9288 56.0564C67.9288 56.0564 92.9753 17.4527 99.3121 11.3581C105.649 5.2635 131.452 1.5873 149.799 1.05078C159.492 0.887552 169.126 2.49251 178.14 5.77234C200.099 13.5237 217.602 29.1144 222.908 38.7992C230.145 52.5997 234.041 101.479 234.041 101.479Z" fill="#0F72B7"/>
<path opacity="0.5" d="M197.619 75.6091C137.207 44.6368 67.9288 56.0564 67.9288 56.0564C67.9288 56.0564 92.9753 17.4527 99.3121 11.3581C105.649 5.2635 131.452 1.5873 149.799 1.05078C159.492 0.887552 169.126 2.49251 178.14 5.77234C185.867 10.8446 192.709 16.1433 193.574 19.386C195.487 27.0864 197.619 75.6091 197.619 75.6091Z" fill="white"/>
<path d="M197.619 75.6092C167.633 47.6923 130.645 26.943 89.8985 15.181C51.3111 5.02669 20.0541 14.8023 18.3035 35.3768C16.5529 55.9513 72.1899 72.3271 72.1899 72.3271C72.1899 72.3271 103.077 37.8024 197.619 75.6092Z" fill="#0F72B7"/>
<path opacity="0.2" d="M197.619 75.6092C167.633 47.6923 130.645 26.943 89.8985 15.181C51.3111 5.02669 20.0541 14.8023 18.3035 35.3768C16.5529 55.9513 72.1899 72.3271 72.1899 72.3271C72.1899 72.3271 103.077 37.8024 197.619 75.6092Z" fill="#407BFF"/>
<path d="M273.012 209.978V211.936C273.012 211.936 272.256 211.249 272.214 210.754C272.171 210.26 273.012 209.978 273.012 209.978Z" fill="black"/>
<path d="M271.506 209.488C271.413 209.762 271.379 210.052 271.407 210.34C271.434 210.627 271.522 210.906 271.665 211.157C271.808 211.409 272.002 211.627 272.235 211.798C272.468 211.969 272.735 212.088 273.017 212.149C275.146 212.825 276.503 212.149 276.822 212.75C277.141 213.351 266.669 219.386 266.669 219.386L268.659 210.723L271.506 209.488Z" fill="#407BFF"/>
<path opacity="0.3" d="M271.506 209.488C271.413 209.762 271.379 210.052 271.407 210.34C271.434 210.627 271.522 210.906 271.665 211.157C271.808 211.409 272.002 211.627 272.235 211.798C272.468 211.969 272.735 212.088 273.017 212.149C275.146 212.825 276.503 212.149 276.822 212.75C277.141 213.351 266.669 219.386 266.669 219.386L268.659 210.723L271.506 209.488Z" fill="black"/>
<path d="M267.552 290.557V290.679L266.488 290.078L221.606 264.14L225.544 186.265C225.544 185.02 226.225 184.402 227.071 184.892L228.598 185.775L270.601 210.02L270.559 210.387L267.552 290.557Z" fill="#407BFF"/>
<path opacity="0.2" d="M267.552 290.557V290.679L266.488 290.078L221.606 264.14L225.544 186.265C225.544 185.02 226.225 184.402 227.071 184.892L228.598 185.775L270.601 210.02L270.559 210.387L267.552 290.557Z" fill="black"/>
<path d="M261.454 221.765L259.245 219.285L270.521 212.777C272.224 214.059 273.533 214.746 275.055 214.102L261.454 221.765Z" fill="#455A64"/>
<path d="M269.952 211.441L228.354 187.425C227.948 187.22 227.501 187.113 227.047 187.113C226.593 187.113 226.146 187.22 225.741 187.425L214.624 193.843L256.808 218.002C256.808 218.002 258.633 217.529 259.873 218.535C261.113 219.54 261.044 218.263 261.044 218.263L270.521 212.793C269.75 211.739 269.952 211.441 269.952 211.441Z" fill="#F5F5F5"/>
<path d="M260.639 221.248C260.208 221.004 260.027 220.716 260.23 220.599L260.581 220.397C260.975 220.168 260.613 219.583 259.761 219.093C258.91 218.604 257.904 218.38 257.516 218.609L257.159 218.811C256.957 218.928 256.217 218.689 255.499 218.279L255.754 296.288L256.818 296.889C257.023 296.94 257.239 296.919 257.43 296.83L257.787 296.628C258.175 296.405 259.181 296.628 260.027 297.102C260.874 297.575 261.241 298.166 260.847 298.406L260.496 298.608C260.293 298.725 260.496 299.012 260.905 299.262L260.639 221.248Z" fill="#407BFF"/>
<path opacity="0.4" d="M260.639 221.248C260.208 221.004 260.027 220.716 260.23 220.599L260.581 220.397C260.975 220.168 260.613 219.583 259.761 219.093C258.91 218.604 257.904 218.38 257.516 218.609L257.159 218.811C256.957 218.928 256.217 218.689 255.499 218.279L255.754 296.288L256.818 296.889C257.023 296.94 257.239 296.919 257.43 296.83L257.787 296.628C258.175 296.405 259.181 296.628 260.027 297.102C260.874 297.575 261.241 298.166 260.847 298.406L260.496 298.608C260.293 298.725 260.496 299.012 260.905 299.262L260.639 221.248Z" fill="black"/>
<path d="M256.808 296.762V296.884L255.744 296.283L210.819 270.345V194.779C210.819 193.529 211.5 192.912 212.346 193.401L213.874 194.29L256.808 218.003V296.762Z" fill="#407BFF"/>
<path opacity="0.2" d="M256.808 296.762V296.884L255.744 296.283L210.819 270.345V194.779C210.819 193.529 211.5 192.912 212.346 193.401L213.874 194.29L256.808 218.003V296.762Z" fill="black"/>
<path d="M260.15 298.815V220.722L262.938 221.845V299.688C262.42 299.791 261.883 299.737 261.395 299.534L260.15 298.815Z" fill="#407BFF"/>
<path opacity="0.2" d="M260.15 298.815V220.722L262.938 221.845V299.688C262.42 299.791 261.883 299.737 261.395 299.534L260.15 298.815Z" fill="black"/>
<path d="M277.945 290.711C277.95 290.762 277.95 290.814 277.945 290.865C277.95 290.897 277.95 290.929 277.945 290.961C277.926 291.034 277.895 291.104 277.855 291.169C277.841 291.208 277.823 291.245 277.801 291.28C277.734 291.4 277.653 291.513 277.562 291.616C277.466 291.735 277.363 291.849 277.253 291.956L276.859 292.297C276.781 292.365 276.697 292.427 276.609 292.483L276.402 292.627C276.247 292.733 276.082 292.839 275.907 292.941L266.227 298.528C265.222 299.115 264.115 299.509 262.965 299.688V221.845L277.982 212.846V290.69L277.945 290.711Z" fill="#407BFF"/>
<path d="M262.933 232.653V242.035C268.941 240.002 274.108 237.245 277.956 233.366V223.984C274.087 227.847 268.968 230.615 262.933 232.653Z" fill="#407BFF"/>
<path opacity="0.4" d="M262.933 232.653V242.035C268.941 240.002 274.108 237.245 277.956 233.366V223.984C274.087 227.847 268.968 230.615 262.933 232.653Z" fill="white"/>
<path d="M262.933 245.515V249.011C268.941 246.973 274.108 244.222 277.956 240.342V236.841C274.087 240.709 268.968 243.477 262.933 245.515Z" fill="#407BFF"/>
<path opacity="0.4" d="M262.933 245.515V249.011C268.941 246.973 274.108 244.222 277.956 240.342V236.841C274.087 240.709 268.968 243.477 262.933 245.515Z" fill="white"/>
<path d="M266.2 220.663L265.445 219.354C264.474 219.957 263.367 220.307 262.225 220.37C262.281 219.927 262.188 219.478 261.959 219.093C261.596 218.535 261.099 218.077 260.512 217.763C259.837 217.369 259.089 217.115 258.314 217.018H258.149C257.687 216.973 257.221 217.061 256.808 217.273L216.965 194.279L215.608 193.523L213.884 192.523C213.748 192.429 213.59 192.373 213.425 192.361C213.261 192.349 213.096 192.381 212.948 192.454L211.415 193.337C211.565 193.26 211.733 193.225 211.902 193.235C212.07 193.245 212.233 193.301 212.373 193.396H212.4L216.965 196.056L255.499 218.3C256.217 218.71 256.962 218.96 257.164 218.833L257.516 218.63C257.769 218.525 258.05 218.509 258.314 218.582C258.823 218.671 259.312 218.851 259.756 219.115C260.607 219.609 260.969 220.179 260.581 220.418L260.23 220.621C260.022 220.738 260.23 221.025 260.639 221.275L261.406 221.712C262.246 222.174 264.396 221.727 266.2 220.663Z" fill="#407BFF"/>
<path opacity="0.3" d="M266.2 220.663L265.445 219.354C264.474 219.957 263.367 220.307 262.225 220.37C262.281 219.927 262.188 219.478 261.959 219.093C261.596 218.535 261.099 218.077 260.512 217.763C259.837 217.369 259.089 217.115 258.314 217.018H258.149C257.687 216.973 257.221 217.061 256.808 217.273L216.965 194.279L215.608 193.523L213.884 192.523C213.748 192.429 213.59 192.373 213.425 192.361C213.261 192.349 213.096 192.381 212.948 192.454L211.415 193.337C211.565 193.26 211.733 193.225 211.902 193.235C212.07 193.245 212.233 193.301 212.373 193.396H212.4L216.965 196.056L255.499 218.3C256.217 218.71 256.962 218.96 257.164 218.833L257.516 218.63C257.769 218.525 258.05 218.509 258.314 218.582C258.823 218.671 259.312 218.851 259.756 219.115C260.607 219.609 260.969 220.179 260.581 220.418L260.23 220.621C260.022 220.738 260.23 221.025 260.639 221.275L261.406 221.712C262.246 222.174 264.396 221.727 266.2 220.663Z" fill="black"/>
<path d="M265.445 219.375L275.125 213.788L275.518 213.543L275.827 213.32C275.838 213.322 275.848 213.322 275.859 213.32C274.752 213.798 273.251 213.32 272.262 212.787C271.684 212.484 271.196 212.035 270.846 211.484C270.591 211.057 270.504 210.55 270.601 210.063L270.468 209.983L270.197 209.834L231.664 187.542L229.455 186.265C229.248 186.148 229.035 186.02 228.816 185.903L226.954 184.839C226.825 184.771 226.682 184.735 226.536 184.735C226.391 184.735 226.247 184.771 226.118 184.839L226.534 184.599L227.646 183.961C227.766 183.897 227.901 183.864 228.037 183.864C228.173 183.864 228.307 183.897 228.428 183.961C228.646 184.088 228.875 184.227 229.114 184.354L229.546 184.604L230.291 185.03L230.748 185.296L231.073 185.482L231.642 185.807L262.241 203.485L272.017 209.126C272.714 209.52 273.124 209.94 272.959 210.079C272.94 210.094 272.921 210.109 272.9 210.121L272.554 210.318C272.134 210.563 272.474 211.159 273.321 211.643C274.167 212.127 274.837 212.143 275.258 211.92L275.678 211.68C275.765 211.619 275.865 211.578 275.971 211.562C276.076 211.547 276.184 211.556 276.285 211.59L276.514 211.718L276.992 212L277.594 212.34C277.718 212.403 277.818 212.506 277.876 212.633C277.934 212.759 277.947 212.902 277.913 213.037C277.923 213.069 277.923 213.102 277.913 213.133C277.896 213.206 277.867 213.277 277.828 213.341C277.818 213.378 277.804 213.414 277.785 213.447C277.718 213.567 277.637 213.68 277.546 213.782C277.45 213.902 277.347 214.016 277.237 214.123C277.11 214.235 276.982 214.347 276.838 214.464C276.761 214.532 276.679 214.594 276.593 214.65L276.386 214.794C276.231 214.9 276.067 215.006 275.886 215.108L266.2 220.663L265.445 219.375Z" fill="#407BFF"/>
<path opacity="0.3" d="M265.445 219.375L275.125 213.788L275.518 213.543L275.827 213.32C275.838 213.322 275.848 213.322 275.859 213.32C274.752 213.798 273.251 213.32 272.262 212.787C271.684 212.484 271.196 212.035 270.846 211.484C270.591 211.057 270.504 210.55 270.601 210.063L270.468 209.983L270.197 209.834L231.664 187.542L229.455 186.265C229.248 186.148 229.035 186.02 228.816 185.903L226.954 184.839C226.825 184.771 226.682 184.735 226.536 184.735C226.391 184.735 226.247 184.771 226.118 184.839L226.534 184.599L227.646 183.961C227.766 183.897 227.901 183.864 228.037 183.864C228.173 183.864 228.307 183.897 228.428 183.961C228.646 184.088 228.875 184.227 229.114 184.354L229.546 184.604L230.291 185.03L230.748 185.296L231.073 185.482L231.642 185.807L262.241 203.485L272.017 209.126C272.714 209.52 273.124 209.94 272.959 210.079C272.94 210.094 272.921 210.109 272.9 210.121L272.554 210.318C272.134 210.563 272.474 211.159 273.321 211.643C274.167 212.127 274.837 212.143 275.258 211.92L275.678 211.68C275.765 211.619 275.865 211.578 275.971 211.562C276.076 211.547 276.184 211.556 276.285 211.59L276.514 211.718L276.992 212L277.594 212.34C277.718 212.403 277.818 212.506 277.876 212.633C277.934 212.759 277.947 212.902 277.913 213.037C277.923 213.069 277.923 213.102 277.913 213.133C277.896 213.206 277.867 213.277 277.828 213.341C277.818 213.378 277.804 213.414 277.785 213.447C277.718 213.567 277.637 213.68 277.546 213.782C277.45 213.902 277.347 214.016 277.237 214.123C277.11 214.235 276.982 214.347 276.838 214.464C276.761 214.532 276.679 214.594 276.593 214.65L276.386 214.794C276.231 214.9 276.067 215.006 275.886 215.108L266.2 220.663L265.445 219.375Z" fill="black"/>
<path d="M250.741 223.399V225.357C250.741 225.357 249.986 224.671 249.943 224.176C249.9 223.681 250.741 223.399 250.741 223.399Z" fill="black"/>
<path d="M249.23 222.92C249.145 223.192 249.117 223.478 249.149 223.761C249.18 224.044 249.27 224.318 249.413 224.564C249.555 224.811 249.747 225.025 249.977 225.193C250.207 225.362 250.469 225.481 250.747 225.543C252.875 226.214 254.227 225.543 254.551 226.145C254.876 226.746 244.398 232.781 244.398 232.781L246.388 224.117L249.23 222.92Z" fill="#407BFF"/>
<path opacity="0.3" d="M249.23 222.92C249.145 223.192 249.117 223.478 249.149 223.761C249.18 224.044 249.27 224.318 249.413 224.564C249.555 224.811 249.747 225.025 249.977 225.193C250.207 225.362 250.469 225.481 250.747 225.543C252.875 226.214 254.227 225.543 254.551 226.145C254.876 226.746 244.398 232.781 244.398 232.781L246.388 224.117L249.23 222.92Z" fill="black"/>
<path d="M245.281 303.978V304.1L244.217 303.499L199.308 277.561L203.268 199.686C203.268 198.435 203.954 197.818 204.795 198.308L206.328 199.196L248.325 223.436L248.288 223.803L245.281 303.978Z" fill="#407BFF"/>
<path opacity="0.2" d="M245.281 303.978V304.1L244.217 303.499L199.308 277.561L203.268 199.686C203.268 198.435 203.954 197.818 204.795 198.308L206.328 199.196L248.325 223.436L248.288 223.803L245.281 303.978Z" fill="black"/>
<path d="M239.167 235.186L236.964 232.706L248.24 226.192C249.943 227.48 251.247 228.161 252.774 227.523L239.167 235.186Z" fill="#455A64"/>
<path d="M247.681 224.862L206.083 200.846C205.678 200.641 205.23 200.534 204.776 200.534C204.322 200.534 203.875 200.641 203.47 200.846L192.337 207.264L234.521 231.408C234.521 231.408 236.341 230.934 237.581 231.94C238.821 232.946 238.757 231.674 238.757 231.674L248.235 226.198C247.479 225.155 247.681 224.862 247.681 224.862Z" fill="#F5F5F5"/>
<path d="M238.369 234.67C237.938 234.42 237.751 234.137 237.959 234.02L238.31 233.813C238.699 233.589 238.337 233.004 237.485 232.509C236.634 232.014 235.633 231.801 235.24 232.03L234.888 232.232C234.686 232.349 233.946 232.11 233.228 231.7L233.483 309.709L234.548 310.31C234.753 310.355 234.967 310.335 235.16 310.252L235.511 310.049C235.905 309.821 236.905 310.049 237.757 310.523C238.608 310.997 238.97 311.587 238.576 311.827L238.225 312.029C238.023 312.146 238.225 312.433 238.635 312.678L238.369 234.67Z" fill="#407BFF"/>
<path opacity="0.25" d="M238.369 234.67C237.938 234.42 237.751 234.137 237.959 234.02L238.31 233.813C238.699 233.589 238.337 233.004 237.485 232.509C236.634 232.014 235.633 231.801 235.24 232.03L234.888 232.232C234.686 232.349 233.946 232.11 233.228 231.7L233.483 309.709L234.548 310.31C234.753 310.355 234.967 310.335 235.16 310.252L235.511 310.049C235.905 309.821 236.905 310.049 237.757 310.523C238.608 310.997 238.97 311.587 238.576 311.827L238.225 312.029C238.023 312.146 238.225 312.433 238.635 312.678L238.369 234.67Z" fill="white"/>
<path d="M234.537 310.182V310.305L233.473 309.698L188.548 283.766V208.2C188.548 206.95 189.235 206.332 190.081 206.822L191.608 207.705L234.516 231.434L234.537 310.182Z" fill="#407BFF"/>
<path opacity="0.4" d="M234.537 310.182V310.305L233.473 309.698L188.548 283.766V208.2C188.548 206.95 189.235 206.332 190.081 206.822L191.608 207.705L234.516 231.434L234.537 310.182Z" fill="white"/>
<path d="M237.874 312.231V234.143L240.662 235.266V313.104C240.146 313.21 239.61 313.158 239.124 312.955L237.874 312.231Z" fill="#407BFF"/>
<path opacity="0.4" d="M237.874 312.231V234.143L240.662 235.266V313.104C240.146 313.21 239.61 313.158 239.124 312.955L237.874 312.231Z" fill="white"/>
<path d="M255.664 304.132C255.669 304.181 255.669 304.231 255.664 304.281C255.674 304.314 255.674 304.349 255.664 304.382C255.646 304.455 255.618 304.525 255.579 304.589C255.566 304.627 255.548 304.663 255.525 304.696C255.459 304.818 255.379 304.933 255.286 305.036C255.19 305.155 255.087 305.267 254.977 305.372C254.849 305.489 254.722 305.6 254.578 305.712C254.5 305.783 254.417 305.847 254.328 305.904L254.126 306.048C253.971 306.154 253.806 306.26 253.626 306.361L243.951 311.949C242.945 312.536 241.839 312.929 240.689 313.109V235.266L255.664 226.267V304.132Z" fill="#407BFF"/>
<g opacity="0.7">
<path d="M255.664 304.132C255.669 304.181 255.669 304.231 255.664 304.281C255.674 304.314 255.674 304.349 255.664 304.382C255.646 304.455 255.618 304.525 255.579 304.589C255.566 304.627 255.548 304.663 255.525 304.696C255.459 304.818 255.379 304.933 255.286 305.036C255.19 305.155 255.087 305.267 254.977 305.372C254.849 305.489 254.722 305.6 254.578 305.712C254.5 305.783 254.417 305.847 254.328 305.904L254.126 306.048C253.971 306.154 253.806 306.26 253.626 306.361L243.951 311.949C242.945 312.536 241.839 312.929 240.689 313.109V235.266L255.664 226.267V304.132Z" fill="white"/>
</g>
<path d="M240.662 241.715V251.103C246.665 249.064 251.837 246.313 255.68 242.429V233.047C251.816 236.91 246.665 239.677 240.662 241.715Z" fill="#FAFAFA"/>
<path d="M240.662 293.989V303.371C246.665 301.338 251.837 298.581 255.68 294.702V285.32C251.816 289.184 246.665 291.972 240.662 293.989Z" fill="#FAFAFA"/>
<path d="M243.956 234.105L243.201 232.796C242.237 233.394 241.14 233.743 240.008 233.813C240.061 233.369 239.968 232.921 239.742 232.536C239.379 231.977 238.881 231.519 238.294 231.205C237.619 230.809 236.869 230.555 236.091 230.46C236.038 230.455 235.984 230.455 235.931 230.46C235.468 230.415 235.001 230.502 234.585 230.71L194.689 207.7L193.338 206.923L191.608 205.922C191.472 205.828 191.314 205.772 191.149 205.76C190.985 205.748 190.82 205.78 190.672 205.853L189.144 206.737C189.294 206.659 189.463 206.623 189.631 206.633C189.8 206.643 189.963 206.699 190.102 206.795L194.668 209.456L233.201 231.7C233.92 232.11 234.665 232.36 234.867 232.232L235.224 232.03C235.477 231.925 235.757 231.907 236.022 231.977C236.53 232.068 237.018 232.248 237.464 232.509C238.315 233.004 238.677 233.573 238.284 233.813L237.932 234.015C237.73 234.132 237.932 234.419 238.342 234.664L239.108 235.106C239.97 235.595 242.126 235.143 243.956 234.105Z" fill="#407BFF"/>
<path opacity="0.6" d="M243.956 234.105L243.201 232.796C242.237 233.394 241.14 233.743 240.008 233.813C240.061 233.369 239.968 232.921 239.742 232.536C239.379 231.977 238.881 231.519 238.294 231.205C237.619 230.809 236.869 230.555 236.091 230.46C236.038 230.455 235.984 230.455 235.931 230.46C235.468 230.415 235.001 230.502 234.585 230.71L194.689 207.7L193.338 206.923L191.608 205.922C191.472 205.828 191.314 205.772 191.149 205.76C190.985 205.748 190.82 205.78 190.672 205.853L189.144 206.737C189.294 206.659 189.463 206.623 189.631 206.633C189.8 206.643 189.963 206.699 190.102 206.795L194.668 209.456L233.201 231.7C233.92 232.11 234.665 232.36 234.867 232.232L235.224 232.03C235.477 231.925 235.757 231.907 236.022 231.977C236.53 232.068 237.018 232.248 237.464 232.509C238.315 233.004 238.677 233.573 238.284 233.813L237.932 234.015C237.73 234.132 237.932 234.419 238.342 234.664L239.108 235.106C239.97 235.595 242.126 235.143 243.956 234.105Z" fill="white"/>
<path d="M243.174 232.797L252.849 227.209L253.248 226.964L253.556 226.741C252.449 227.225 250.949 226.741 249.964 226.208C249.386 225.902 248.897 225.451 248.543 224.899C248.294 224.472 248.207 223.97 248.299 223.484L248.166 223.404L247.9 223.255L209.393 200.974L207.184 199.696C206.977 199.579 206.764 199.452 206.546 199.335C205.897 198.957 205.242 198.579 204.678 198.27C204.549 198.202 204.406 198.167 204.26 198.167C204.115 198.167 203.971 198.202 203.842 198.27L204.263 198.031L205.375 197.387C205.495 197.325 205.628 197.292 205.764 197.292C205.899 197.292 206.032 197.325 206.152 197.387C206.375 197.515 206.604 197.653 206.844 197.781L207.275 198.031L208.015 198.457C208.185 198.552 208.339 198.637 208.472 198.723L208.802 198.909L209.372 199.234L239.97 216.912L249.741 222.547C250.443 222.946 250.848 223.367 250.683 223.505L250.624 223.548L250.284 223.745C249.858 223.989 250.204 224.585 251.05 225.07C251.896 225.554 252.567 225.57 252.987 225.346L253.402 225.102C253.491 225.042 253.592 225.003 253.698 224.988C253.804 224.972 253.912 224.98 254.014 225.011L254.238 225.144L254.722 225.426L255.318 225.767C255.442 225.828 255.542 225.93 255.601 226.056C255.66 226.181 255.675 226.324 255.642 226.459C255.65 226.492 255.65 226.526 255.642 226.56C255.623 226.633 255.593 226.703 255.552 226.767C255.543 226.803 255.529 226.837 255.509 226.868C255.443 226.991 255.363 227.105 255.27 227.209C255.174 227.321 255.068 227.438 254.956 227.544C254.844 227.651 254.706 227.768 254.562 227.885C254.484 227.956 254.401 228.02 254.312 228.076L254.11 228.22C253.955 228.326 253.785 228.433 253.61 228.534L243.956 234.106L243.174 232.797Z" fill="#407BFF"/>
<path opacity="0.6" d="M243.174 232.797L252.849 227.209L253.248 226.964L253.556 226.741C252.449 227.225 250.949 226.741 249.964 226.208C249.386 225.902 248.897 225.451 248.543 224.899C248.294 224.472 248.207 223.97 248.299 223.484L248.166 223.404L247.9 223.255L209.393 200.974L207.184 199.696C206.977 199.579 206.764 199.452 206.546 199.335C205.897 198.957 205.242 198.579 204.678 198.27C204.549 198.202 204.406 198.167 204.26 198.167C204.115 198.167 203.971 198.202 203.842 198.27L204.263 198.031L205.375 197.387C205.495 197.325 205.628 197.292 205.764 197.292C205.899 197.292 206.032 197.325 206.152 197.387C206.375 197.515 206.604 197.653 206.844 197.781L207.275 198.031L208.015 198.457C208.185 198.552 208.339 198.637 208.472 198.723L208.802 198.909L209.372 199.234L239.97 216.912L249.741 222.547C250.443 222.946 250.848 223.367 250.683 223.505L250.624 223.548L250.284 223.745C249.858 223.989 250.204 224.585 251.05 225.07C251.896 225.554 252.567 225.57 252.987 225.346L253.402 225.102C253.491 225.042 253.592 225.003 253.698 224.988C253.804 224.972 253.912 224.98 254.014 225.011L254.238 225.144L254.722 225.426L255.318 225.767C255.442 225.828 255.542 225.93 255.601 226.056C255.66 226.181 255.675 226.324 255.642 226.459C255.65 226.492 255.65 226.526 255.642 226.56C255.623 226.633 255.593 226.703 255.552 226.767C255.543 226.803 255.529 226.837 255.509 226.868C255.443 226.991 255.363 227.105 255.27 227.209C255.174 227.321 255.068 227.438 254.956 227.544C254.844 227.651 254.706 227.768 254.562 227.885C254.484 227.956 254.401 228.02 254.312 228.076L254.11 228.22C253.955 228.326 253.785 228.433 253.61 228.534L243.956 234.106L243.174 232.797Z" fill="white"/>
<g filter="url(#filter2_f_63_2337)">
<circle cx="598.613" cy="157.917" r="130.613" fill="#EEF5FE"/>
</g>
<circle cx="598.383" cy="153.52" r="110.383" fill="#C2D9FF"/>
<path d="M698.5 106.464C699.807 107.526 703.463 117.856 704.19 119.319C704.329 119.599 699.111 107.247 699.254 107.535C699.544 108.118 702.186 114.451 702.471 115.034C702.869 115.831 703.053 116.779 703.462 117.568C706.961 124.363 708.993 131.64 710.8 139.019C710.963 139.672 710.963 139.672 711.13 140.341C712.854 147.751 713.434 155.219 713.386 162.803C713.378 164.06 713.386 165.312 713.394 166.568C713.402 173.803 712.663 180.913 711.023 187.977C710.924 188.408 710.824 188.836 710.721 189.28C708.382 198.941 704.902 208.556 699.727 217.125C699.545 217.432 699.362 217.736 699.175 218.051C698.572 219.043 697.96 220.031 697.344 221.015C697.09 221.419 696.84 221.824 696.578 222.244C690.013 232.586 681.418 242.423 671.413 249.688C670.444 250.4 669.499 251.143 668.55 251.886C665.674 254.13 662.755 256.165 659.55 257.946C658.859 258.331 658.176 258.728 657.492 259.121C642.003 268 623.967 273.123 605.995 273.524C605.682 273.531 605.368 273.539 605.046 273.547C575.799 274.204 548.541 264.364 526.562 245.519C526.296 245.301 526.025 245.079 525.751 244.854C521.367 241.24 517.343 237.125 513.852 232.683C513.455 232.193 513.054 231.699 512.657 231.209C500.793 216.475 489.287 194.729 490.022 175.507C491.996 176.989 493.394 178.607 494.864 180.563C499.225 186.261 503.887 191.932 509.483 196.51C510.067 197.016 510.067 197.016 510.663 197.533C525.982 210.793 544.434 219.4 564.444 223.274C564.833 223.352 565.222 223.426 565.627 223.504C572.113 224.686 578.583 225.052 585.168 225.025C585.533 225.025 585.895 225.025 586.268 225.025C604.454 224.962 622.081 220.843 638.166 212.458C638.591 212.24 638.591 212.24 639.02 212.018C651.777 205.456 663.986 195.705 672.72 184.453C673.173 183.889 673.625 183.325 674.074 182.765C689.433 163.418 696.705 140.263 697.138 115.946C697.154 115.098 697.174 114.246 697.193 113.398C697.205 112.896 697.213 112.399 697.225 111.881C697.336 110.625 697.948 107.596 698.5 106.464Z" fill="black"/>
<path d="M612.753 96.9713C614.32 97.0487 614.99 97.7161 616.197 98.6538C619.529 101.137 623.791 102.566 628.008 102.161C631.964 101.353 635.765 99.6137 638.286 96.4002C640.077 93.67 641.15 90.698 641.582 87.4846C641.811 86.0097 641.847 85.854 643.099 84.8603C643.437 84.7244 643.779 84.5869 644.129 84.4463C645.233 84.9614 645.826 85.4036 646.509 86.4148C647.317 90.1022 645.817 94.5669 643.897 97.7552C643.115 98.8868 642.291 99.9469 641.408 101.004C641.163 101.293 640.923 101.584 640.668 101.885C637.51 105.134 632.104 107.355 627.593 107.661C626.468 107.618 626.468 107.618 625.266 107.491C624.764 107.441 624.265 107.39 623.748 107.337C618.941 106.693 614.275 105.113 611.145 101.236C610.784 99.9807 610.67 99.4209 611.151 98.1941C611.844 97.4205 611.844 97.4205 612.753 96.9713Z" fill="#403D44"/>
<path d="M559.479 118.281C561.046 118.358 561.716 119.025 562.923 119.963C566.256 122.446 570.517 123.875 574.734 123.47C578.691 122.663 582.491 120.923 585.012 117.71C586.804 114.979 587.877 112.007 588.309 108.794C588.538 107.319 588.573 107.163 589.826 106.17C590.164 106.034 590.506 105.896 590.856 105.756C591.96 106.271 592.553 106.713 593.236 107.724C594.044 111.412 592.543 115.876 590.624 119.064C589.842 120.196 589.018 121.256 588.135 122.314C587.889 122.602 587.649 122.893 587.395 123.194C584.237 126.443 578.83 128.664 574.319 128.97C573.195 128.927 573.195 128.927 571.993 128.801C571.49 128.751 570.992 128.699 570.475 128.646C565.667 128.002 561.001 126.422 557.872 122.545C557.51 121.29 557.397 120.73 557.877 119.503C558.571 118.73 558.571 118.73 559.479 118.281Z" fill="#403D44"/>
<path d="M603.55 142.793C604.633 142.845 604.962 143.231 605.74 143.971C608.247 146.156 611.322 147.437 614.698 147.208C617.86 146.691 620.578 145.473 622.498 142.873C623.592 141.143 624.329 139.339 624.735 137.341C624.962 136.289 624.994 136.194 625.937 135.541C626.187 135.46 626.44 135.378 626.699 135.295C627.469 135.726 627.874 136.079 628.32 136.847C628.757 139.799 627.217 143.001 625.569 145.385C622.694 148.855 618.967 150.747 614.478 151.263C613.635 151.244 612.85 151.165 612.019 151.02C611.74 150.972 611.458 150.925 611.169 150.877C607.492 150.146 604.398 148.677 602.075 145.664C601.88 144.886 601.88 144.886 602.215 143.856C602.841 143.007 602.841 143.007 603.55 142.793Z" fill="#403D44"/>
<path d="M657.482 98.9876C657.482 114.006 645.113 126.193 629.837 126.193C614.561 126.193 602.191 114.006 602.191 98.9876C602.191 83.9697 614.561 71.7819 629.837 71.7819C645.113 71.7819 657.482 83.9697 657.482 98.9876Z" stroke="black"/>
<circle cx="575.745" cy="118.338" r="27.2058" stroke="black"/>
<rect x="600.573" y="109.614" width="4.67318" height="2.21777" transform="rotate(-21.3404 600.573 109.614)" fill="black"/>
<path d="M632.754 227.832L637.823 228.162L640.093 235.443L633.079 236.92L632.754 227.832Z" fill="black"/>
<ellipse cx="631.798" cy="218.741" rx="11.0988" ry="5.57904" transform="rotate(-30 631.798 218.741)" fill="white"/>
<ellipse cx="647.652" cy="209.923" rx="10.9221" ry="5.57904" transform="rotate(-30 647.652 209.923)" fill="white"/>
<path d="M640.045 216.698L656.428 256.449L665.966 260.099L665.346 249.945L642.515 215.364L640.045 216.698Z" fill="#0F72B7"/>
<path d="M637.73 211.327C638.16 211.071 638.729 210.678 639.202 210.346C639.41 210.194 639.662 210.113 639.919 210.117C640.177 210.12 640.426 210.208 640.63 210.366L642.149 211.545C642.367 211.717 642.521 211.959 642.583 212.23L643.01 214.109C643.064 214.349 643.042 214.6 642.947 214.827C642.853 215.054 642.691 215.247 642.483 215.379L640.752 216.597C640.537 216.747 640.279 216.823 640.017 216.813C639.754 216.803 639.502 216.708 639.299 216.541L637.584 215.067C637.452 214.949 637.347 214.803 637.276 214.641C637.204 214.479 637.168 214.303 637.17 214.126L637.176 212.342C637.175 212.14 637.225 211.941 637.322 211.763C637.419 211.586 637.559 211.436 637.73 211.327Z" fill="#0F72B7"/>
<path d="M640.512 210.637C640.534 210.93 640.526 211.225 640.487 211.517C640.448 212.059 640.373 212.814 640.301 213.632C640.229 214.45 640.129 215.201 640.06 215.733C640.04 216.029 639.99 216.322 639.912 216.609C639.889 216.315 639.897 216.02 639.936 215.728C639.976 215.186 640.051 214.431 640.13 213.608C640.209 212.785 640.295 212.044 640.365 211.5C640.389 211.208 640.438 210.92 640.512 210.637Z" fill="#263238"/>
<defs>
<filter id="filter0_f_63_2337" x="0" y="17.3044" width="281.226" height="281.226" filterUnits="userSpaceOnUse" color-interpolation-filters="sRGB">
<feFlood flood-opacity="0" result="BackgroundImageFix"/>
<feBlend mode="normal" in="SourceGraphic" in2="BackgroundImageFix" result="shape"/>
<feGaussianBlur stdDeviation="5" result="effect1_foregroundBlur_63_2337"/>
</filter>
<filter id="filter1_f_63_2337" x="27.1091" y="101.584" width="227.008" height="171.596" filterUnits="userSpaceOnUse" color-interpolation-filters="sRGB">
<feFlood flood-opacity="0" result="BackgroundImageFix"/>
<feBlend mode="normal" in="SourceGraphic" in2="BackgroundImageFix" result="shape"/>
<feGaussianBlur stdDeviation="2" result="effect1_foregroundBlur_63_2337"/>
</filter>
<filter id="filter2_f_63_2337" x="458" y="17.3044" width="281.226" height="281.226" filterUnits="userSpaceOnUse" color-interpolation-filters="sRGB">
<feFlood flood-opacity="0" result="BackgroundImageFix"/>
<feBlend mode="normal" in="SourceGraphic" in2="BackgroundImageFix" result="shape"/>
<feGaussianBlur stdDeviation="5" result="effect1_foregroundBlur_63_2337"/>
</filter>
</defs>
</svg>
