<svg width="282" height="282" viewBox="0 0 282 282" fill="none" xmlns="http://www.w3.org/2000/svg">
<g filter="url(#filter0_f_60_2285)">
<circle cx="140.613" cy="140.917" r="130.613" fill="#EEF5FE"/>
</g>
<circle cx="140.383" cy="136.52" r="110.383" fill="#C2D9FF"/>
<path d="M240.5 89.4637C241.807 90.5256 245.463 100.856 246.19 102.319C246.329 102.599 241.111 90.2472 241.254 90.535C241.544 91.1184 244.186 97.4505 244.471 98.034C244.869 98.8313 245.053 99.7787 245.462 100.568C248.961 107.363 250.993 114.64 252.8 122.019C252.963 122.672 252.963 122.672 253.13 123.341C254.854 130.751 255.434 138.219 255.386 145.803C255.378 147.06 255.386 148.312 255.394 149.568C255.402 156.803 254.663 163.913 253.023 170.977C252.924 171.408 252.824 171.836 252.721 172.28C250.382 181.941 246.902 191.556 241.727 200.125C241.545 200.432 241.362 200.736 241.175 201.051C240.572 202.043 239.96 203.031 239.344 204.015C239.09 204.419 238.84 204.824 238.578 205.244C232.013 215.586 223.418 225.423 213.413 232.688C212.444 233.4 211.499 234.143 210.55 234.886C207.674 237.13 204.755 239.165 201.55 240.946C200.859 241.331 200.176 241.728 199.492 242.121C184.003 251 165.967 256.123 147.995 256.524C147.682 256.531 147.368 256.539 147.046 256.547C117.799 257.204 90.541 247.364 68.5617 228.519C68.2956 228.301 68.0255 228.079 67.7514 227.854C63.3667 224.24 59.3434 220.125 55.8523 215.683C55.4551 215.193 55.0539 214.699 54.6568 214.209C42.7933 199.475 31.2874 177.729 32.0221 158.507C33.996 159.989 35.3941 161.607 36.8636 163.563C41.2245 169.261 45.8873 174.932 51.4834 179.51C52.0672 180.016 52.0672 180.016 52.663 180.533C67.9818 193.793 86.4343 202.4 106.444 206.274C106.833 206.352 107.222 206.426 107.627 206.504C114.113 207.686 120.583 208.052 127.168 208.025C127.533 208.025 127.895 208.025 128.268 208.025C146.454 207.962 164.081 203.843 180.166 195.458C180.591 195.24 180.591 195.24 181.02 195.018C193.777 188.456 205.986 178.705 214.72 167.453C215.173 166.889 215.625 166.325 216.074 165.765C231.433 146.418 238.705 123.263 239.138 98.9458C239.154 98.0979 239.174 97.2461 239.193 96.3982C239.205 95.8964 239.213 95.3986 239.225 94.8812C239.336 93.6249 239.948 90.5956 240.5 89.4637Z" fill="black"/>
<path d="M154.753 79.9713C156.32 80.0487 156.99 80.7161 158.197 81.6538C161.529 84.1366 165.791 85.5655 170.008 85.1611C173.964 84.3532 177.765 82.6137 180.286 79.4002C182.077 76.67 183.15 73.698 183.582 70.4846C183.811 69.0097 183.847 68.854 185.099 67.8603C185.437 67.7244 185.779 67.5869 186.129 67.4463C187.233 67.9614 187.826 68.4036 188.509 69.4148C189.317 73.1022 187.817 77.5669 185.897 80.7552C185.115 81.8868 184.291 82.9469 183.408 84.0043C183.163 84.293 182.923 84.5839 182.668 84.8849C179.51 88.1337 174.104 90.3548 169.593 90.6609C168.468 90.6179 168.468 90.6179 167.266 90.4914C166.764 90.4414 166.265 90.3898 165.748 90.3368C160.941 89.6929 156.275 88.1128 153.145 84.2361C152.784 82.9807 152.67 82.4209 153.151 81.1941C153.844 80.4205 153.844 80.4205 154.753 79.9713Z" fill="#403D44"/>
<path d="M101.479 101.281C103.046 101.358 103.716 102.025 104.923 102.963C108.256 105.446 112.517 106.875 116.734 106.47C120.691 105.663 124.491 103.923 127.012 100.71C128.804 97.9794 129.877 95.0074 130.309 91.7939C130.538 90.3191 130.573 90.1633 131.826 89.1696C132.164 89.0337 132.506 88.8962 132.856 88.7557C133.96 89.2707 134.553 89.7129 135.236 90.7241C136.044 94.4115 134.543 98.8762 132.624 102.064C131.842 103.196 131.018 104.256 130.135 105.314C129.889 105.602 129.649 105.893 129.395 106.194C126.237 109.443 120.83 111.664 116.319 111.97C115.195 111.927 115.195 111.927 113.993 111.801C113.49 111.751 112.992 111.699 112.475 111.646C107.667 111.002 103.001 109.422 99.872 105.545C99.5104 104.29 99.397 103.73 99.8771 102.503C100.571 101.73 100.571 101.73 101.479 101.281Z" fill="#403D44"/>
<path d="M145.55 125.793C146.633 125.845 146.962 126.231 147.74 126.971C150.247 129.156 153.322 130.437 156.698 130.208C159.86 129.691 162.578 128.473 164.498 125.873C165.592 124.143 166.329 122.339 166.735 120.341C166.962 119.289 166.994 119.194 167.937 118.541C168.187 118.46 168.44 118.378 168.699 118.295C169.469 118.726 169.874 119.079 170.32 119.847C170.757 122.799 169.217 126.001 167.569 128.385C164.694 131.855 160.967 133.747 156.478 134.263C155.635 134.244 154.85 134.165 154.019 134.02C153.74 133.972 153.458 133.925 153.169 133.877C149.492 133.146 146.398 131.677 144.075 128.664C143.88 127.886 143.88 127.886 144.215 126.856C144.841 126.007 144.841 126.007 145.55 125.793Z" fill="#403D44"/>
<path d="M199.482 81.9876C199.482 97.0056 187.113 109.193 171.837 109.193C156.561 109.193 144.191 97.0056 144.191 81.9876C144.191 66.9697 156.561 54.7819 171.837 54.7819C187.113 54.7819 199.482 66.9697 199.482 81.9876Z" stroke="black"/>
<circle cx="117.745" cy="101.338" r="27.2058" stroke="black"/>
<rect x="142.573" y="92.6138" width="4.67318" height="2.21777" transform="rotate(-21.3404 142.573 92.6138)" fill="black"/>
<path d="M174.754 210.832L179.823 211.162L182.093 218.443L175.079 219.92L174.754 210.832Z" fill="black"/>
<ellipse cx="173.798" cy="201.741" rx="11.0988" ry="5.57904" transform="rotate(-30 173.798 201.741)" fill="white"/>
<ellipse cx="189.652" cy="192.923" rx="10.9221" ry="5.57904" transform="rotate(-30 189.652 192.923)" fill="white"/>
<path d="M182.045 199.698L198.428 239.449L207.966 243.099L207.346 232.945L184.515 198.364L182.045 199.698Z" fill="#0F72B7"/>
<path d="M179.73 194.327C180.16 194.071 180.729 193.678 181.202 193.346C181.41 193.194 181.662 193.113 181.919 193.117C182.177 193.12 182.426 193.208 182.63 193.366L184.149 194.545C184.367 194.717 184.521 194.959 184.583 195.23L185.01 197.109C185.064 197.349 185.042 197.6 184.947 197.827C184.853 198.054 184.691 198.247 184.483 198.379L182.752 199.597C182.537 199.747 182.279 199.823 182.017 199.813C181.754 199.803 181.502 199.708 181.299 199.541L179.584 198.067C179.452 197.949 179.347 197.803 179.276 197.641C179.204 197.479 179.168 197.303 179.17 197.126L179.176 195.342C179.175 195.14 179.225 194.941 179.322 194.763C179.419 194.586 179.559 194.436 179.73 194.327Z" fill="#0F72B7"/>
<path d="M182.512 193.637C182.534 193.93 182.526 194.225 182.487 194.517C182.448 195.059 182.373 195.814 182.301 196.632C182.229 197.45 182.129 198.201 182.06 198.733C182.04 199.029 181.99 199.322 181.912 199.609C181.889 199.315 181.897 199.02 181.936 198.728C181.976 198.186 182.051 197.431 182.13 196.608C182.209 195.785 182.295 195.044 182.365 194.5C182.389 194.208 182.438 193.92 182.512 193.637Z" fill="#263238"/>
<defs>
<filter id="filter0_f_60_2285" x="0" y="0.304443" width="281.226" height="281.226" filterUnits="userSpaceOnUse" color-interpolation-filters="sRGB">
<feFlood flood-opacity="0" result="BackgroundImageFix"/>
<feBlend mode="normal" in="SourceGraphic" in2="BackgroundImageFix" result="shape"/>
<feGaussianBlur stdDeviation="5" result="effect1_foregroundBlur_60_2285"/>
</filter>
</defs>
</svg>
